<?xml version="1.0" encoding="utf-8"?>
<!-- Generator: Adobe Illustrator 28.0.0, SVG Export Plug-In . SVG Version: 6.00 Build 0)  -->
<svg version="1.1" id="Layer_1" xmlns="http://www.w3.org/2000/svg" xmlns:xlink="http://www.w3.org/1999/xlink" x="0px" y="0px"
	 viewBox="0 0 53.8 55.6" style="enable-background:new 0 0 53.8 55.6;" xml:space="preserve">
<style type="text/css">
	.st0{fill:none;stroke:#000000;stroke-width:2;stroke-miterlimit:10;}
</style>
<ellipse class="st0" cx="26.9" cy="28" rx="25.5" ry="26.3"/>
<g>
	<path d="M41.3,13.8H12.5c-1.8,0-3.3,1.5-3.3,3.5v19.5c0,1.9,1.5,3.5,3.3,3.5h28.8c1.8,0,3.3-1.5,3.3-3.5V17.2
		C44.5,15.3,43.1,13.8,41.3,13.8z M42.8,36.7c0,0.9-0.7,1.6-1.5,1.6H12.5c-0.8,0-1.5-0.7-1.5-1.6V17.2c0-0.9,0.7-1.6,1.5-1.6h28.8
		c0.8,0,1.5,0.7,1.5,1.6V36.7z M41.3,17.5c0.4,0.4,0.4,1,0,1.3l0,0L33.5,27l7.5,8.1c0.3,0.4,0.3,1,0,1.3c-0.4,0.4-0.9,0.4-1.3,0
		l-7.5-8.1L30,30.6c-1.8,1.8-4.6,1.8-6.4,0l-2.2-2.3l-7.5,8.1c-0.3,0.4-0.9,0.4-1.3,0s-0.4-1,0-1.3l7.5-8.1l-7.8-8.1
		c-0.4-0.4-0.4-1,0-1.3s0.9-0.4,1.3,0l11.2,11.8c1.1,1.1,2.8,1.1,3.8,0l11.2-11.8C40.4,17.1,40.9,17.1,41.3,17.5L41.3,17.5z"/>
</g>
</svg>
